<svg width="1440" height="1024" viewBox="0 0 1440 1024" fill="none" xmlns="http://www.w3.org/2000/svg">
<g clip-path="url(#clip0_21_139)">
<rect width="1440" height="1024" fill="black"/>
<path fill-rule="evenodd" clip-rule="evenodd" d="M1284.18 -104.329C1350.64 -116.256 1409.52 -62.0773 1456.72 -13.7965C1503.27 33.8225 1547.63 92.4428 1541.35 158.738C1535.37 221.846 1479.49 266.079 1426.86 301.412C1384.91 329.57 1334.57 327.713 1284.18 331.386C1227.06 335.551 1165.86 356.88 1119.07 323.851C1067.19 287.233 1029.68 221.457 1039.6 158.738C1048.96 99.5328 1123.34 82.6115 1164.16 38.7128C1208.22 -8.67467 1220.5 -92.898 1284.18 -104.329Z" fill="#9C6FE4"/>
<path fill-rule="evenodd" clip-rule="evenodd" d="M1144.01 540.597C1260.47 488.002 1362.35 393.317 1489 410.311C1637.63 430.254 1792.18 501.659 1858.01 636.4C1923.57 770.608 1866.14 926.749 1808.66 1064.61C1756.22 1190.36 1675.91 1302.87 1554.42 1364.52C1432.02 1426.63 1294.34 1419.37 1159.44 1394.06C994.591 1363.12 793.62 1353.84 713.156 1206.67C631.895 1058.05 701.338 866.697 793.336 724.471C867.857 609.265 1018.96 597.067 1144.01 540.597Z" fill="#9C6FE4"/>
<path fill-rule="evenodd" clip-rule="evenodd" d="M664.374 253.736C720.752 255.383 782.63 240.888 825.368 277.694C869.935 316.076 884.47 380.114 879.133 438.688C874.212 492.692 838.683 536.403 798.479 572.793C760.705 606.983 715.206 629.623 664.374 633.072C609.424 636.8 550.459 630.477 510.748 592.313C470.488 553.621 465.046 494.45 462.113 438.688C458.953 378.622 449.3 308.594 493.689 268.003C537.49 227.951 605.047 252.002 664.374 253.736Z" fill="#9C6FE4"/>
<path fill-rule="evenodd" clip-rule="evenodd" d="M1368.81 179.501C1397.86 180.349 1429.74 172.881 1451.76 191.844C1474.72 211.619 1482.21 244.613 1479.46 274.791C1476.92 302.614 1458.62 325.135 1437.9 343.883C1418.44 361.498 1395 373.163 1368.81 374.94C1340.5 376.86 1310.12 373.603 1289.66 353.941C1268.92 334.006 1266.11 303.52 1264.6 274.791C1262.98 243.844 1258 207.764 1280.87 186.852C1303.44 166.216 1338.25 178.608 1368.81 179.501Z" fill="#9C6FE4" fill-opacity="0.6"/>
<path fill-rule="evenodd" clip-rule="evenodd" d="M929.307 -22.9419C956.222 -45.5972 991.623 -50.6075 1026.8 -51.2769C1059 -51.8897 1092.82 -48.4655 1116.38 -26.5019C1139.09 -5.32879 1138.22 28.1531 1144.58 58.5422C1152.48 96.2888 1176.69 135.756 1157.32 169.101C1136.57 204.799 1091.35 219.04 1050.12 221.108C1010.25 223.108 974.28 204.102 942.554 179.875C908.751 154.062 870.992 124.646 868.22 82.2046C865.474 40.1559 897.069 4.19407 929.307 -22.9419Z" fill="#9C6FE4" fill-opacity="0.6"/>
<path fill-rule="evenodd" clip-rule="evenodd" d="M725.307 699.058C752.222 676.403 787.623 671.392 822.797 670.723C854.998 670.11 888.821 673.535 912.377 695.498C935.085 716.671 934.217 750.153 940.577 780.542C948.477 818.289 972.691 857.756 953.316 891.101C932.574 926.799 887.355 941.04 846.12 943.108C806.251 945.108 770.28 926.102 738.554 901.875C704.751 876.062 666.992 846.646 664.22 804.205C661.474 762.156 693.069 726.194 725.307 699.058Z" fill="#9C6FE4" fill-opacity="0.6"/>
</g>
<defs>
<clipPath id="clip0_21_139">
<rect width="1440" height="1024" fill="white"/>
</clipPath>
</defs>
</svg>
